<?xml version="1.0" encoding="UTF-8" standalone="no"?>
<svg
   id="svg"
   version="1.1"
   width="400"
   height="200"
   viewBox="0, 0, 400,200"
   sodipodi:docname="EssenceLogoStructuredWhite.svg"
   inkscape:version="1.1 (c68e22c387, 2021-05-23)"
   xmlns:inkscape="http://www.inkscape.org/namespaces/inkscape"
   xmlns:sodipodi="http://sodipodi.sourceforge.net/DTD/sodipodi-0.dtd"
   xmlns="http://www.w3.org/2000/svg"
   xmlns:svg="http://www.w3.org/2000/svg">
  <defs
     id="defs21" />
  <sodipodi:namedview
     id="namedview19"
     pagecolor="#ffffff"
     bordercolor="#666666"
     borderopacity="1.0"
     inkscape:pageshadow="2"
     inkscape:pageopacity="0.0"
     inkscape:pagecheckerboard="true"
     showgrid="false"
     inkscape:zoom="2.985"
     inkscape:cx="188.77722"
     inkscape:cy="126.80067"
     inkscape:window-width="1920"
     inkscape:window-height="1027"
     inkscape:window-x="1912"
     inkscape:window-y="-8"
     inkscape:window-maximized="1"
     inkscape:current-layer="svg" />
  <g
     id="svgg"
     transform="translate(-1.0050252,-5.0251256)"
     style="fill:#ffffff">
    <path
       id="path0"
       d="M 176.25,32.522 C 106.617,38.06 56.356,61.097 48.715,90.977 38.109,132.45 106.113,166.228 200.25,166.246 296.267,166.263 364.118,132.273 352.47,89.99 344.793,62.123 298.526,39.989 233.75,33.195 c -8.747,-0.917 -48.565,-1.383 -57.5,-0.673 m 55.5,3.183 c 106.938,10.965 153.88,63.291 90.75,101.16 -57.127,34.268 -171.188,36.588 -234.75,4.775 -77.259,-38.668 -27.792,-97.269 90,-106.619 9.025,-0.716 44.757,-0.264 54,0.684 m -53.25,4.548 c -5.637,0.334 -11.937,0.864 -14,1.176 -2.062,0.313 -7.575,1.135 -12.25,1.827 -8.024,1.188 -14.11,2.318 -17.5,3.248 -0.825,0.227 -2.4,0.557 -3.5,0.734 -1.1,0.177 -2.675,0.528 -3.5,0.778 -13.61,4.138 -21.547,6.949 -27.75,9.826 -1.513,0.702 -4.662,2.131 -7,3.177 -6.65,2.974 -9.872,4.794 -14.349,8.106 C 77.257,70.156 75.942,71 75.73,71 73.762,71 63.862,83.306 60.297,90.182 c -2.611,5.038 -3.203,7.885 -0.947,4.559 3.423,-5.046 11.624,-12.971 15.4,-14.882 0.825,-0.417 2.13,-1.343 2.901,-2.059 2.202,-2.044 2.294,-1.783 2.451,7.02 l 0.148,8.32 -2.611,3.805 c -1.435,2.093 -2.864,4.101 -3.175,4.463 -0.783,0.912 -0.512,1.058 2.728,1.476 1.563,0.201 2.834,0.535 2.825,0.741 -0.009,0.206 -0.017,4.65 -0.017,9.875 0,7.77 -0.126,9.5 -0.694,9.5 -0.657,0 -2.752,-0.896 -11.187,-4.783 -4.424,-2.039 -4.271,-1.47 0.96,3.572 3.54,3.411 5.76,5.005 14.921,10.71 5.016,3.124 15.244,8.501 16.17,8.501 0.356,0 1.055,-1.294 1.553,-2.875 0.498,-1.581 0.998,-3.116 1.11,-3.41 0.113,-0.295 -1.547,-1.39 -3.689,-2.434 -2.142,-1.044 -5.75,-2.813 -8.019,-3.931 L 87,126.317 V 115.158 104 l 2.875,-0.018 c 4.935,-0.03 6.248,-1.383 9.586,-9.876 1.368,-3.481 1.334,-3.75 -0.428,-3.363 -2.974,0.653 -11.254,1.679 -11.637,1.443 C 87.178,92.051 87,87.572 87,82.232 87,71.211 86.398,72.738 92,69.56 c 6.25,-3.545 18.734,-9.054 20.525,-9.058 0.426,-0.001 0.989,-0.207 1.25,-0.459 0.425,-0.408 2.62,-1.111 14.225,-4.555 4.271,-1.268 13.115,-3.21 21.5,-4.721 6.465,-1.166 10.07,-1.608 22.25,-2.731 15.672,-1.445 41.967,-1.348 58.75,0.215 6.813,0.635 18.787,2.332 19.618,2.78 0.478,0.258 1.431,0.469 2.118,0.469 0.687,0 2.209,0.225 3.382,0.499 1.173,0.274 4.719,1.066 7.882,1.759 5.731,1.256 13.278,3.422 18.5,5.309 1.512,0.547 4.705,1.703 7.095,2.569 l 4.345,1.575 1.155,-1.437 c 0.635,-0.791 1.568,-2.072 2.073,-2.847 l 0.919,-1.409 -1.419,-0.579 C 295.388,56.62 294.075,56.077 293.25,55.731 263.976,43.466 221.326,37.714 178.5,40.253 m 37.881,16.083 c -3.155,4.107 -5.487,8.421 -5.281,9.77 0.173,1.142 0.456,1.239 1.934,0.662 1.357,-0.528 3.371,1.638 5.471,5.885 l 2.026,4.097 -0.416,34.75 c -0.229,19.113 -0.373,34.82 -0.32,34.905 0.054,0.085 0.838,-1.153 1.743,-2.75 0.905,-1.598 1.775,-3.018 1.934,-3.155 0.158,-0.137 0.959,-1.262 1.78,-2.5 l 1.494,-2.25 -0.12,-19.25 c -0.065,-10.588 0.059,-20.713 0.277,-22.5 l 0.397,-3.25 3.1,6.425 c 1.705,3.534 3.1,6.539 3.1,6.678 0,0.139 1.101,2.535 2.448,5.325 3.521,7.297 4.556,9.663 5.828,13.322 0.621,1.787 1.487,4.206 1.924,5.375 1.186,3.169 2.689,9.026 3.083,12.011 0.447,3.379 0.795,3.537 2.215,1.01 0.638,-1.134 2.004,-3.334 3.036,-4.887 l 1.876,-2.825 0.274,-20.467 c 0.151,-11.257 0.432,-28.511 0.625,-38.342 0.21,-10.672 0.168,-17.867 -0.104,-17.854 -0.729,0.033 -7.925,9.605 -7.861,10.457 0.031,0.424 0.29,3.697 0.575,7.272 1.264,15.858 1.302,36.686 0.065,35.426 -0.23,-0.234 -1.755,-3.576 -3.388,-7.426 -1.634,-3.85 -5.955,-13.3 -9.603,-21 -3.648,-7.7 -7.186,-15.237 -7.862,-16.75 -0.676,-1.513 -1.657,-3.636 -2.18,-4.719 -0.523,-1.083 -0.951,-2.161 -0.951,-2.396 0,-0.235 -0.233,-0.699 -0.517,-1.031 -0.284,-0.332 -0.791,-0.985 -1.125,-1.452 -1.497,-2.087 -3.095,-1.668 -5.477,1.434 M 202.5,55.082 c -2.062,0.245 -7.037,0.318 -11.055,0.16 l -7.306,-0.286 -0.673,1.626 c -0.37,0.894 -1.438,2.76 -2.372,4.147 -2.736,4.06 -4.227,7.261 -3.483,7.478 0.352,0.102 1.933,0.451 3.514,0.775 l 2.875,0.59 v 10.925 10.926 l -3.459,6.163 c -3.889,6.931 -3.897,6.788 0.381,7.235 l 3.129,0.327 -0.081,19.551 -0.081,19.551 6.18,0.583 c 3.4,0.321 8.337,0.603 10.972,0.625 l 4.791,0.042 0.542,-1.625 c 0.298,-0.894 1.564,-4.316 2.813,-7.604 2.661,-7.005 2.801,-6.337 -1.206,-5.758 -4.65,0.672 -11.373,0.579 -13.957,-0.194 l -2.225,-0.665 -0.125,-11.827 -0.125,-11.827 2.85,-0.002 c 5.029,-0.003 7.253,-2.532 10.638,-12.096 1.486,-4.199 1.793,-4.019 -5.701,-3.351 -3.476,0.309 -6.643,0.438 -7.038,0.286 -0.65,-0.249 -0.828,-9.508 -0.364,-18.924 0.065,-1.319 0.129,-1.343 4.591,-1.692 6.733,-0.527 8.269,-2.094 12.831,-13.096 l 1.089,-2.625 -2.098,0.068 c -1.153,0.037 -3.784,0.269 -5.847,0.514 m -42.343,2.738 c -4.676,2.725 -12.393,13.45 -14.34,19.93 -2.805,9.337 -0.791,22.75 3.417,22.75 0.375,0 0.758,0.197 0.849,0.437 0.168,0.441 6.69,4.563 7.219,4.563 1.344,0 5.883,4.084 6.946,6.25 2.246,4.577 2.982,14.415 1.236,16.519 -0.261,0.315 -0.355,0.694 -0.207,0.841 0.584,0.584 -2.888,3.39 -4.19,3.387 -2.238,-0.006 -5.266,-2.484 -6.918,-5.662 -0.91,-1.75 -2.666,-7.178 -2.677,-8.275 -0.013,-1.252 -5.299,4.818 -6.786,7.793 -3.769,7.538 5.093,17.969 13.117,15.44 3.356,-1.058 8.194,-5.682 10.177,-9.727 0.688,-1.403 1.419,-2.554 1.625,-2.558 0.206,-0.005 0.375,-0.353 0.375,-0.774 0,-0.687 1.564,-5.828 2.353,-7.734 0.171,-0.412 0.358,-0.919 0.416,-1.125 0.058,-0.206 0.153,-0.431 0.21,-0.5 0.657,-0.789 1.524,-9.764 1.217,-12.614 -0.75,-6.986 -2.116,-8.787 -11.315,-14.916 -10.147,-6.759 -11.241,-8.354 -10.726,-15.643 0.783,-11.102 8.32,-13.994 11.845,-4.545 1.034,2.771 1.461,2.723 3.712,-0.419 1.08,-1.506 2.127,-2.738 2.328,-2.738 0.462,0 1.96,-4.342 1.96,-5.681 0,-5.355 -6.514,-8.105 -11.843,-4.999 m 140.173,5.214 c -1.331,1.674 -2.343,3.111 -2.25,3.193 0.094,0.083 1.126,0.632 2.295,1.222 l 2.125,1.071 v 11.874 c 0,11.617 -0.025,11.912 -1.169,13.615 -1.583,2.357 -5.017,8.974 -4.775,9.203 0.107,0.1 1.432,0.377 2.944,0.615 l 2.75,0.432 0.133,13.61 0.133,13.61 -3.383,1.7 c -9.287,4.668 -22.832,9.424 -28.585,10.038 -1.487,0.159 -2.949,0.485 -3.25,0.724 -0.302,0.24 -1.842,0.592 -3.423,0.783 -1.581,0.192 -2.875,0.501 -2.875,0.687 0,0.827 -8.043,2.633 -15,3.369 -1.787,0.189 -3.733,0.526 -4.323,0.75 -6.375,2.412 -53.798,3.816 -69.927,2.071 -23.387,-2.532 -40.689,-6.125 -57,-11.839 -2.75,-0.964 -5.251,-1.754 -5.558,-1.757 -0.548,-0.005 -2.692,4.553 -2.692,5.722 0,0.599 13.516,5.35 20.563,7.228 7,1.866 26.101,5.452 33.437,6.279 3.988,0.449 9.05,1.05 11.25,1.337 2.2,0.286 11.465,0.643 20.59,0.792 19.214,0.315 25.064,-0.016 50.41,-2.855 3.893,-0.436 7.683,-1.111 14.747,-2.627 5.083,-1.091 9.023,-1.728 13.628,-2.204 1.581,-0.163 2.875,-0.495 2.875,-0.737 0,-0.242 0.885,-0.44 1.966,-0.44 1.462,0 2.041,-0.233 2.255,-0.909 0.184,-0.579 1.514,-1.327 3.659,-2.057 9.417,-3.205 12.624,-4.539 21.37,-8.885 5.225,-2.596 9.837,-4.997 10.25,-5.334 0.413,-0.337 1.988,-1.259 3.5,-2.049 11.393,-5.95 19.817,-14.646 23.424,-24.184 2.038,-5.389 1.996,-6.431 -0.134,-3.325 -2.712,3.952 -11.911,12.743 -13.336,12.743 -0.216,0 -1.074,0.619 -1.907,1.375 -0.832,0.756 -3.377,2.483 -5.655,3.838 -2.278,1.355 -5.137,3.099 -6.353,3.875 -3.717,2.374 -3.574,2.789 -3.423,-9.961 l 0.134,-11.373 2.95,-0.368 c 3.689,-0.461 4.721,-1.136 6.831,-4.472 0.928,-1.465 1.826,-2.776 1.996,-2.914 0.171,-0.138 0.434,-0.7 0.585,-1.25 0.151,-0.55 0.437,-1.394 0.635,-1.875 0.326,-0.792 -0.036,-0.875 -3.819,-0.879 -2.298,-0.003 -5.359,-0.147 -6.803,-0.32 l -2.625,-0.315 0.008,-9.556 c 0.009,-12.168 -0.443,-11.514 5.992,-8.669 1.238,0.547 3.6,1.51 5.25,2.14 1.65,0.629 5.22,2.074 7.933,3.21 6.105,2.555 6.249,2.428 1.747,-1.548 -1.985,-1.753 -4.019,-3.582 -4.52,-4.063 -0.5,-0.481 -1.091,-0.875 -1.313,-0.875 -0.222,0 -1.491,-1.013 -2.82,-2.25 -1.329,-1.237 -2.636,-2.25 -2.906,-2.25 -0.27,0 -1.757,-0.762 -3.306,-1.694 -1.548,-0.932 -4.277,-2.424 -6.065,-3.315 -1.788,-0.891 -3.363,-1.788 -3.5,-1.993 -1.155,-1.722 -3.292,-0.955 -5.67,2.036 m -173.409,0.927 c -2.067,0.665 -5.45,3.175 -7.921,5.875 -3.782,4.132 -5,5.633 -5,6.16 0,0.277 -0.194,0.504 -0.431,0.504 -1.402,0 -4.267,7.628 -4.47,11.899 -0.392,8.232 0.913,10.108 10.218,14.693 9.604,4.732 11.419,7.1 11.428,14.908 0.01,8.202 -4.626,11.286 -9.928,6.606 -1.543,-1.362 -4.816,-6.66 -4.825,-7.809 -0.017,-2.43 -0.749,-2.282 -4.171,0.848 -5.931,5.424 -4.449,11.243 3.946,15.5 9.932,5.036 22.483,-8.723 22.483,-24.645 0,-8.72 -0.97,-10.028 -11.311,-15.243 C 117.412,88.452 116.5,87.428 116.5,81.54 c 0,-9.301 8.722,-12.954 12.005,-5.027 0.808,1.949 1.041,1.894 3.208,-0.751 1.009,-1.23 2.125,-2.529 2.481,-2.885 4.872,-4.871 -0.268,-11.171 -7.273,-8.916 m 151.576,0.991 c -3.535,1.118 -7.868,4.956 -10.495,9.298 -0.665,1.1 -1.388,2.075 -1.606,2.167 -0.218,0.091 -0.396,0.507 -0.396,0.924 0,0.417 -0.316,1.467 -0.702,2.333 -3.238,7.272 -4.808,26.398 -2.818,34.326 0.242,0.963 0.804,3.213 1.25,5 2.302,9.24 8.82,17.493 13.82,17.498 3.145,0.003 7.882,-4.383 12.046,-11.154 2.21,-3.594 2.079,-4.102 -0.732,-2.825 -5.774,2.62 -11.839,-0.944 -15.084,-8.865 -0.766,-1.872 -1.725,-4.154 -2.13,-5.07 -1.287,-2.913 -2.637,-12.05 -2.635,-17.834 0.007,-18.066 7.889,-24.935 14.773,-12.875 1.201,2.104 1.191,2.107 4.036,-1.165 3.046,-3.503 3.379,-4.223 2.967,-6.418 -0.679,-3.619 -7.864,-6.74 -12.294,-5.34"
       stroke="none"
       fill="#000000"
       fill-rule="evenodd"
       style="fill:#ffffff" />
  </g>
</svg>
